<?xml version="1.0" encoding="UTF-8"?>
<svg version="1.1" xmlns="http://www.w3.org/2000/svg" width="1200" height="987">
<path d="M0 0 C2.54105756 2.27539797 5.05652688 4.57696962 7.56689453 6.88623047 C8.04296143 7.31589111 8.51902832 7.74555176 9.00952148 8.18823242 C10.48876953 9.65966797 10.48876953 9.65966797 11.98950195 11.62133789 C13.71613892 13.74757022 15.13915381 15.24096966 17.48876953 16.65966797 C21.64157083 16.91367659 25.32156317 15.8334833 29.30126953 14.72216797 C30.47125488 14.42656982 31.64124023 14.13097168 32.84667969 13.82641602 C36.06462946 12.9955088 39.26532068 12.12476931 42.46453857 11.22583008 C44.50920559 10.65395216 46.55718385 10.09569804 48.60644531 9.54052734 C91.34964382 -2.08942609 133.98203462 -18.53798103 171.48876953 -42.34033203 C172.55494619 -39.12240062 172.43932469 -37.35823421 171.25830078 -34.19970703 C170.95609619 -33.38832275 170.6538916 -32.57693848 170.3425293 -31.7409668 C169.82710571 -30.42890259 169.82710571 -30.42890259 169.30126953 -29.09033203 C168.94540771 -28.17372803 168.5895459 -27.25712402 168.22290039 -26.31274414 C161.67397505 -9.89409732 153.74277877 6.22781418 143.48876953 20.65966797 C142.97588379 21.38992187 142.46299805 22.12017578 141.93457031 22.87255859 C134.93280669 32.79020819 127.69842007 42.26717503 119.18457031 50.93310547 C117.96299212 52.17684301 116.74868629 53.42773833 115.5390625 54.68310547 C101.7061075 69.03750879 87.03913525 80.62609082 70.48876953 91.65966797 C99.67518701 88.54298713 128.61583864 81.7770616 156.48876953 72.65966797 C157.5822168 72.30259766 158.67566406 71.94552734 159.80224609 71.57763672 C174.9662939 66.57451748 189.79584015 60.90784623 204.48876953 54.65966797 C204.81876953 55.31966797 205.14876953 55.97966797 205.48876953 56.65966797 C198.7894005 66.58135709 191.91122917 76.26620224 184.48876953 85.65966797 C183.83521484 86.49626953 183.18166016 87.33287109 182.50830078 88.19482422 C178.66854041 93.06379871 174.69929298 97.81697053 170.67626953 102.53466797 C170.22719238 103.06310303 169.77811523 103.59153809 169.31542969 104.13598633 C160.53716322 114.36106933 151.25354992 124.08153162 141.72753906 133.60620117 C139.98488636 135.35105605 138.25043791 137.10380539 136.51611328 138.85693359 C130.53459674 144.86766389 124.48694681 150.534793 117.82324219 155.79272461 C115.58229876 157.58487002 113.46722387 159.4592366 111.36376953 161.40966797 C104.02786232 168.02401053 95.87814269 174.81121789 87.40292358 179.91601562 C85.27340622 181.51303282 85.27340622 181.51303282 84.98997498 184.06706238 C84.99014114 185.0234108 84.99030731 185.97975922 84.99047852 186.96508789 C84.98030197 188.05851501 84.97012543 189.15194214 84.9596405 190.27850342 C84.96796402 191.47034241 84.97628754 192.6621814 84.98486328 193.89013672 C84.97671097 195.13152405 84.96855865 196.37291138 84.9601593 197.6519165 C84.94308616 200.32462557 84.93252202 202.99648138 84.93225098 205.66915894 C84.92829965 212.67166794 84.83821523 219.67341975 84.75048828 226.67529297 C84.74223652 227.37113935 84.73398476 228.06698574 84.72548294 228.78391838 C83.86226569 299.44314006 70.04951001 369.82594207 47.48876953 436.65966797 C46.86470215 438.51350098 46.86470215 438.51350098 46.22802734 440.40478516 C37.55479772 465.91549781 27.13817965 490.67607279 15.70117188 515.06298828 C14.60093693 517.41943188 13.51924985 519.78312186 12.44580078 522.15185547 C7.5076654 532.97762197 1.88250583 543.39070166 -3.90820312 553.78173828 C-5.50632658 556.65086398 -7.09277532 559.52624827 -8.67919922 562.40185547 C-24.25365727 590.46636675 -42.22741708 617.02197137 -61.51123047 642.65966797 C-62.06552734 643.40087891 -62.61982422 644.14208984 -63.19091797 644.90576172 C-70.16138825 654.2160847 -77.3813403 663.21524225 -85.04052734 671.96679688 C-86.50970853 673.65791612 -87.9585896 675.36436881 -89.40185547 677.07763672 C-101.69937819 691.65999032 -114.9836285 705.22476201 -128.44873047 718.72216797 C-129.08269745 719.35881378 -129.71666443 719.99545959 -130.36984253 720.65139771 C-136.90642441 727.20890814 -143.43598452 733.67778002 -150.51123047 739.65966797 C-152.11891419 741.11412314 -153.72362761 742.57187692 -155.32373047 744.03466797 C-159.58868355 747.87895042 -163.95983897 751.55493702 -168.42529297 755.16357422 C-170.66062864 756.97164952 -172.88311252 758.7907956 -175.09716797 760.62451172 C-242.7239893 816.44347536 -323.59688938 858.12957634 -525.94873047 904.90966797 C-526.61945587 904.98689087 -527.29018127 905.06411377 -527.98123169 905.14367676 C-553.29534553 908.01392617 -578.58128162 908.99871254 -604.03369141 908.92041016 C-607.76403893 908.90901668 -611.49410083 908.91581126 -615.22443867 908.92728901 C-634.7380766 908.97813802 -654.05636072 908.30579911 -673.51123047 906.65966797 C-674.37717834 906.58641296 -675.24312622 906.51315796 -676.13531494 906.43768311 C-680.87414419 906.02316094 -685.59870898 905.52487098 -690.32373047 904.97216797 C-691.3746991 904.85003433 -691.3746991 904.85003433 -692.44689941 904.72543335 C-769.56696978 895.65579839 -844.48656406 873.64546118 -973.51123047 807.65966797 C-974.73973774 806.91828042 -975.96825359 806.1769071 -977.19677734 805.43554688 C-978.40073782 804.704568 -979.60451877 803.97329336 -980.80810547 803.24169922 C-981.89961914 802.58016846 -982.99113281 801.9186377 -984.11572266 801.23706055 C-984.90624023 800.716521 -985.69675781 800.19598145 -986.51123047 799.65966797 C-986.51123047 799.32966797 -986.51123047 798.99966797 -986.51123047 798.65966797 C-983.63613248 798.80372938 -980.76116493 798.94990451 -977.88623047 799.09716797 C-976.70287109 799.15614258 -976.70287109 799.15614258 -975.49560547 799.21630859 C-971.86737512 799.40347921 -968.24639974 799.59608105 -964.62646484 799.90917969 C-865.1169152 808.34400203 -762.47385116 783.66319349 -629.51123047 700.65966797 C-628.85123047 699.99966797 -628.19123047 699.33966797 -627.51123047 698.65966797 C-628.08752197 698.6200293 -628.66381348 698.58039062 -629.25756836 698.53955078 C-686.82717215 694.43027412 -741.35942098 674.67237536 -784.03466797 634.94873047 C-786.12805229 633.01383581 -788.26205254 631.17389891 -790.44873047 629.34716797 C-814.7095094 608.09433114 -832.95658967 578.4892137 -845.51123047 549.09716797 C-845.98036865 548.00299561 -846.44950684 546.90882324 -846.93286133 545.78149414 C-849.43526054 539.77546008 -851.3291133 534.06056375 -852.51123047 527.65966797 C-846.9158799 528.1188976 -841.34990186 528.6728348 -835.78367615 529.41023254 C-826.15045138 530.65295865 -816.65417774 531.01871437 -806.94873047 530.97216797 C-806.17152649 530.97067749 -805.39432251 530.96918701 -804.59356689 530.96765137 C-784.76216913 530.8997443 -765.75767805 528.44697879 -746.51123047 523.65966797 C-747.09799561 523.51980469 -747.68476074 523.37994141 -748.28930664 523.23583984 C-788.99022103 513.40535009 -827.47765104 495.13962817 -858.02294922 466.03076172 C-860.12932388 464.02358838 -862.277347 462.14547925 -864.51123047 460.28466797 C-908.02369457 422.24490553 -933.71443585 361.13283106 -938.24169922 304.49560547 C-938.75559385 296.55715693 -938.67309123 288.60882989 -938.51123047 280.65966797 C-934.61682181 281.83746025 -931.10691188 283.30839455 -927.51806641 285.22241211 C-899.41422827 300.15303188 -863.65452138 311.4564979 -831.51123047 309.65966797 C-832.51089844 308.95003906 -832.51089844 308.95003906 -833.53076172 308.22607422 C-861.81033964 287.93597146 -884.36798641 263.31131673 -902.51123047 233.65966797 C-902.90262207 233.02802734 -903.29401367 232.39638672 -903.69726562 231.74560547 C-921.52893528 202.69221614 -932.28302594 167.49292844 -935.51123047 133.65966797 C-935.62080078 132.71220703 -935.73037109 131.76474609 -935.84326172 130.78857422 C-940.44336677 84.60351947 -932.38885333 24.80688708 -904.15576172 -13.53955078 C-903.61306641 -14.13380859 -903.07037109 -14.72806641 -902.51123047 -15.34033203 C-897.61982378 -10.06088055 -892.80869374 -4.78471339 -888.32373047 0.84716797 C-882.68966176 7.82743009 -876.4691542 14.24830667 -870.30224609 20.75537109 C-867.79481301 23.42139863 -865.34171948 26.13320643 -862.88623047 28.84716797 C-855.26817318 37.1804825 -847.40750178 45.35661872 -838.78857422 52.66357422 C-836.19016561 54.94108159 -833.68315594 57.30309752 -831.17041016 59.67431641 C-825.35235366 65.16386451 -819.4849215 70.47350734 -813.22998047 75.46826172 C-810.77479827 77.44722323 -808.37443377 79.4785359 -805.98486328 81.53588867 C-798.4084316 88.0466677 -790.53675828 94.13203794 -782.54882812 100.12792969 C-780.74225832 101.4859957 -778.94436178 102.85463107 -777.14794922 104.22607422 C-768.46800359 110.78239517 -759.43007398 116.8096043 -750.38623047 122.84716797 C-749.43074814 123.48599411 -749.43074814 123.48599411 -748.45596313 124.13772583 C-683.64083631 167.41281775 -612.00767069 199.39490513 -536.51123047 218.65966797 C-535.41359375 218.94551758 -534.31595703 219.23136719 -533.18505859 219.52587891 C-489.62561732 230.82513247 -445.31735764 236.39063221 -400.51123047 239.65966797 C-400.68513306 238.69311279 -400.68513306 238.69311279 -400.86254883 237.70703125 C-401.39521096 234.73359993 -401.92199834 231.75915526 -402.44873047 228.78466797 C-402.72233398 227.26486328 -402.72233398 227.26486328 -403.00146484 225.71435547 C-403.17871094 224.70888672 -403.35595703 223.70341797 -403.53857422 222.66748047 C-403.70091553 221.75627441 -403.86325684 220.84506836 -404.03051758 219.90625 C-405.14682265 212.36708047 -405.67731445 204.87842629 -405.74951172 197.26123047 C-405.75935089 196.39673782 -405.76919006 195.53224518 -405.77932739 194.64155579 C-406.36317894 129.96317554 -387.23622948 68.67836845 -342.51123047 20.65966797 C-341.31882925 19.28891614 -340.13109164 17.91408934 -338.94873047 16.53466797 C-332.9317077 9.66397149 -326.47954579 3.65151797 -319.35107422 -2.05908203 C-317.51219204 -3.53625836 -315.69044224 -5.03512743 -313.89013672 -6.55908203 C-244.26722004 -65.31958229 -141.41061475 -74.30023807 0 0 Z " fill="#FFFFFF" transform="translate(990.51123046875,66.34033203125)"/>
</svg>
